<svg width="436" height="252" viewBox="0 0 436 252" fill="none" xmlns="http://www.w3.org/2000/svg">
<rect width="436" height="252" fill="#F2F2F7"/>
<path d="M270.933 153.709L241.712 126.259C239.498 124.291 236.94 123.209 234.283 123.209C231.578 123.209 229.167 124.143 226.904 126.16L204.668 146.035L195.568 137.819C193.501 135.95 191.238 135.016 188.926 135.016C186.712 135.016 184.646 135.901 182.58 137.77L163.837 154.693C164.132 163.597 167.773 168.123 175.103 168.123H257.552C266.456 168.123 270.933 163.155 270.933 153.709ZM196.65 126.751C202.996 126.751 208.21 121.536 208.21 115.141C208.21 108.795 202.996 103.531 196.65 103.531C190.255 103.531 185.04 108.795 185.04 115.141C185.04 121.536 190.255 126.751 196.65 126.751ZM175.447 171.567H260.553C270.884 171.567 276 166.5 276 156.366V96.2502C276 86.1162 270.884 81 260.553 81H175.447C165.165 81 160 86.1162 160 96.2502V156.366C160 166.5 165.165 171.567 175.447 171.567ZM175.545 163.646C170.626 163.646 167.92 161.039 167.92 155.923V96.693C167.92 91.5768 170.626 88.9203 175.545 88.9203H260.455C265.325 88.9203 268.08 91.5768 268.08 96.693V155.923C268.08 161.039 265.325 163.646 260.455 163.646H175.545Z" fill="#BDBDC2"/>
<circle cx="264" cy="162" r="24" fill="#F2F2F7"/>
<rect x="261" y="146" width="7.74194" height="31.7419" fill="#BDBDC2"/>
<rect x="249" y="166" width="7.74194" height="31.7419" transform="rotate(-90 249 166)" fill="#BDBDC2"/>
</svg>
