<svg width="1024" height="1024" viewBox="0 0 1024 1024" fill="none" xmlns="http://www.w3.org/2000/svg">
<path d="M830.853 192.34C813.915 175.03 788.848 168.628 765.474 175.403L220.425 332.888C195.764 339.731 178.285 359.276 173.576 384.073C168.766 409.344 185.568 441.457 207.519 454.872L377.944 558.936C395.424 569.64 417.984 566.964 432.449 552.466L627.603 357.312C637.427 347.115 653.687 347.115 663.51 357.312C673.334 367.101 673.334 383.057 663.51 393.219L468.018 588.373C453.519 602.872 450.809 625.365 461.48 642.878L565.612 813.947C577.807 834.238 598.809 845.789 621.844 845.789C624.554 845.789 627.603 845.789 630.313 845.417C656.735 842.063 677.738 824.075 685.529 798.669L847.113 257.719C854.227 234.684 847.79 209.617 830.853 192.34" fill="url(#paint0_linear_230_550)"/>
<path opacity="0.4" fill-rule="evenodd" clip-rule="evenodd" d="M206.98 674.364C200.476 674.364 193.972 671.892 189.026 666.912C179.101 656.986 179.101 640.93 189.026 631.004L235.266 584.731C245.191 574.84 261.282 574.84 271.207 584.731C281.099 594.656 281.099 610.747 271.207 620.673L224.934 666.912C219.988 671.892 213.484 674.364 206.98 674.364ZM334.39 714.756C327.886 714.756 321.382 712.283 316.436 707.303C306.511 697.378 306.511 681.321 316.436 671.396L362.676 625.123C372.601 615.231 388.692 615.231 398.617 625.123C408.509 635.048 408.509 651.139 398.617 661.064L352.344 707.303C347.398 712.283 340.894 714.756 334.39 714.756ZM342.982 835.623C347.928 840.602 354.432 843.075 360.936 843.075C367.44 843.075 373.944 840.602 378.889 835.623L425.163 789.383C435.054 779.458 435.054 763.367 425.163 753.442C415.237 743.55 399.147 743.55 389.221 753.442L342.982 799.715C333.056 809.64 333.056 825.697 342.982 835.623Z" fill="url(#paint1_linear_230_550)"/>
<defs>
<linearGradient id="paint0_linear_230_550" x1="511.36" y1="172.75" x2="511.36" y2="845.789" gradientUnits="userSpaceOnUse">
<stop stop-color="#DB2CF8"/>
<stop offset="0.753125" stop-color="#5F2CF8"/>
<stop offset="1" stop-color="#6B2CF8"/>
</linearGradient>
<linearGradient id="paint1_linear_230_550" x1="307.082" y1="577.312" x2="307.082" y2="843.075" gradientUnits="userSpaceOnUse">
<stop stop-color="#DB2CF8"/>
<stop offset="0.753125" stop-color="#5F2CF8"/>
<stop offset="1" stop-color="#6B2CF8"/>
</linearGradient>
</defs>
</svg>
