<svg width="822" height="822" viewBox="0 0 822 822" fill="none" xmlns="http://www.w3.org/2000/svg">
<rect width="822" height="822" rx="200" fill="url(#paint0_linear_235_566)"/>
<path d="M637.401 607.898H475.746C459.975 607.898 447.147 620.929 447.147 636.95C447.147 653.002 459.975 666.003 475.746 666.003H637.401C653.172 666.003 666 653.002 666 636.95C666 620.929 653.172 607.898 637.401 607.898Z" fill="white"/>
<path d="M362.495 265.826L515.677 389.604C519.372 392.564 520.003 397.996 517.119 401.78L335.517 638.411C324.102 653.029 307.278 661.299 289.253 661.604L190.116 662.825C184.829 662.886 180.202 659.224 179 653.975L156.469 556.014C152.564 538.009 156.469 519.394 167.885 505.05L350.388 267.291C353.332 263.476 358.77 262.805 362.495 265.826Z" fill="white"/>
<path d="M584.255 315.835L554.724 352.7C551.75 356.454 546.402 357.064 542.707 354.073C506.807 325.021 414.88 250.467 389.375 229.807C385.65 226.755 385.139 221.323 388.143 217.539L416.623 182.17C442.458 148.906 487.521 145.854 523.871 174.846L565.629 208.109C582.753 221.537 594.169 239.237 598.074 257.853C602.58 278.33 597.774 298.44 584.255 315.835Z" fill="white"/>
<defs>
<linearGradient id="paint0_linear_235_566" x1="411" y1="0" x2="411" y2="822" gradientUnits="userSpaceOnUse">
<stop stop-color="#DB2CF8"/>
<stop offset="0.255208" stop-color="#B12CF8"/>
<stop offset="0.348958" stop-color="#A22CF8"/>
<stop offset="0.753125" stop-color="#5F2CF8"/>
<stop offset="1" stop-color="#6B2CF8"/>
</linearGradient>
</defs>
</svg>
